<mxfile host="app.diagrams.net" agent="Mozilla/5.0 (Windows NT 10.0; Win64; x64) AppleWebKit/537.36 (KHTML, like Gecko) Chrome/131.0.0.0 Safari/537.36" version="26.0.3">
  <diagram name="PÃ¡gina-1" id="YyBa75qQOzeINuxJ0fSR">
    <mxGraphModel dx="1016" dy="618" grid="1" gridSize="10" guides="1" tooltips="1" connect="1" arrows="1" fold="1" page="1" pageScale="1" pageWidth="827" pageHeight="1169" math="0" shadow="0">
      <root>
        <mxCell id="0" />
        <mxCell id="1" parent="0" />
        <mxCell id="ormA-Oc57IU-sr5O8KVN-5" style="edgeStyle=orthogonalEdgeStyle;rounded=0;orthogonalLoop=1;jettySize=auto;html=1;exitX=0.5;exitY=1;exitDx=0;exitDy=0;exitPerimeter=0;entryX=0.5;entryY=0;entryDx=0;entryDy=0;" edge="1" parent="1" source="ormA-Oc57IU-sr5O8KVN-1" target="ormA-Oc57IU-sr5O8KVN-2">
          <mxGeometry relative="1" as="geometry" />
        </mxCell>
        <mxCell id="ormA-Oc57IU-sr5O8KVN-1" value="Inicio" style="strokeWidth=2;html=1;shape=mxgraph.flowchart.start_2;whiteSpace=wrap;" vertex="1" parent="1">
          <mxGeometry x="364" y="20" width="100" height="50" as="geometry" />
        </mxCell>
        <mxCell id="ormA-Oc57IU-sr5O8KVN-6" style="edgeStyle=orthogonalEdgeStyle;rounded=0;orthogonalLoop=1;jettySize=auto;html=1;exitX=0.5;exitY=1;exitDx=0;exitDy=0;entryX=0.5;entryY=0;entryDx=0;entryDy=0;" edge="1" parent="1" source="ormA-Oc57IU-sr5O8KVN-2" target="ormA-Oc57IU-sr5O8KVN-3">
          <mxGeometry relative="1" as="geometry" />
        </mxCell>
        <mxCell id="ormA-Oc57IU-sr5O8KVN-2" value="Produto" style="shape=parallelogram;html=1;strokeWidth=2;perimeter=parallelogramPerimeter;whiteSpace=wrap;rounded=1;arcSize=12;size=0.23;" vertex="1" parent="1">
          <mxGeometry x="364" y="90" width="100" height="40" as="geometry" />
        </mxCell>
        <mxCell id="ormA-Oc57IU-sr5O8KVN-7" style="edgeStyle=orthogonalEdgeStyle;rounded=0;orthogonalLoop=1;jettySize=auto;html=1;exitX=0.5;exitY=1;exitDx=0;exitDy=0;entryX=0.5;entryY=0;entryDx=0;entryDy=0;" edge="1" parent="1" source="ormA-Oc57IU-sr5O8KVN-3" target="ormA-Oc57IU-sr5O8KVN-4">
          <mxGeometry relative="1" as="geometry" />
        </mxCell>
        <mxCell id="ormA-Oc57IU-sr5O8KVN-3" value="Valor" style="shape=parallelogram;html=1;strokeWidth=2;perimeter=parallelogramPerimeter;whiteSpace=wrap;rounded=1;arcSize=12;size=0.23;" vertex="1" parent="1">
          <mxGeometry x="364" y="150" width="100" height="40" as="geometry" />
        </mxCell>
        <mxCell id="ormA-Oc57IU-sr5O8KVN-9" style="edgeStyle=orthogonalEdgeStyle;rounded=0;orthogonalLoop=1;jettySize=auto;html=1;exitX=0.5;exitY=1;exitDx=0;exitDy=0;entryX=0.5;entryY=0;entryDx=0;entryDy=0;" edge="1" parent="1" source="ormA-Oc57IU-sr5O8KVN-4" target="ormA-Oc57IU-sr5O8KVN-8">
          <mxGeometry relative="1" as="geometry" />
        </mxCell>
        <mxCell id="ormA-Oc57IU-sr5O8KVN-4" value="Estado" style="shape=parallelogram;html=1;strokeWidth=2;perimeter=parallelogramPerimeter;whiteSpace=wrap;rounded=1;arcSize=12;size=0.23;" vertex="1" parent="1">
          <mxGeometry x="364" y="210" width="100" height="40" as="geometry" />
        </mxCell>
        <mxCell id="ormA-Oc57IU-sr5O8KVN-8" value="Move 0 Frete" style="rounded=1;whiteSpace=wrap;html=1;absoluteArcSize=1;arcSize=14;strokeWidth=2;" vertex="1" parent="1">
          <mxGeometry x="350" y="270" width="130" height="50" as="geometry" />
        </mxCell>
        <mxCell id="ormA-Oc57IU-sr5O8KVN-16" style="edgeStyle=orthogonalEdgeStyle;rounded=0;orthogonalLoop=1;jettySize=auto;html=1;exitX=1;exitY=0.5;exitDx=0;exitDy=0;exitPerimeter=0;entryX=0;entryY=0.5;entryDx=0;entryDy=0;" edge="1" parent="1" source="ormA-Oc57IU-sr5O8KVN-10" target="ormA-Oc57IU-sr5O8KVN-13">
          <mxGeometry relative="1" as="geometry" />
        </mxCell>
        <mxCell id="ormA-Oc57IU-sr5O8KVN-10" value="Estado = SP" style="strokeWidth=2;html=1;shape=mxgraph.flowchart.decision;whiteSpace=wrap;" vertex="1" parent="1">
          <mxGeometry x="365" y="350" width="100" height="100" as="geometry" />
        </mxCell>
        <mxCell id="ormA-Oc57IU-sr5O8KVN-17" style="edgeStyle=orthogonalEdgeStyle;rounded=0;orthogonalLoop=1;jettySize=auto;html=1;exitX=1;exitY=0.5;exitDx=0;exitDy=0;exitPerimeter=0;entryX=0;entryY=0.5;entryDx=0;entryDy=0;" edge="1" parent="1" source="ormA-Oc57IU-sr5O8KVN-11" target="ormA-Oc57IU-sr5O8KVN-14">
          <mxGeometry relative="1" as="geometry" />
        </mxCell>
        <mxCell id="ormA-Oc57IU-sr5O8KVN-11" value="Estado = MG" style="strokeWidth=2;html=1;shape=mxgraph.flowchart.decision;whiteSpace=wrap;" vertex="1" parent="1">
          <mxGeometry x="364" y="470" width="100" height="100" as="geometry" />
        </mxCell>
        <mxCell id="ormA-Oc57IU-sr5O8KVN-18" style="edgeStyle=orthogonalEdgeStyle;rounded=0;orthogonalLoop=1;jettySize=auto;html=1;exitX=1;exitY=0.5;exitDx=0;exitDy=0;exitPerimeter=0;entryX=0;entryY=0.5;entryDx=0;entryDy=0;" edge="1" parent="1" source="ormA-Oc57IU-sr5O8KVN-12" target="ormA-Oc57IU-sr5O8KVN-15">
          <mxGeometry relative="1" as="geometry" />
        </mxCell>
        <mxCell id="ormA-Oc57IU-sr5O8KVN-12" value="Estado = RJ" style="strokeWidth=2;html=1;shape=mxgraph.flowchart.decision;whiteSpace=wrap;" vertex="1" parent="1">
          <mxGeometry x="364" y="600" width="105" height="100" as="geometry" />
        </mxCell>
        <mxCell id="ormA-Oc57IU-sr5O8KVN-13" value="Frete = Valor * 10%" style="rounded=1;whiteSpace=wrap;html=1;absoluteArcSize=1;arcSize=14;strokeWidth=2;" vertex="1" parent="1">
          <mxGeometry x="520" y="375" width="130" height="50" as="geometry" />
        </mxCell>
        <mxCell id="ormA-Oc57IU-sr5O8KVN-14" value="Frete = Valor * 15%" style="rounded=1;whiteSpace=wrap;html=1;absoluteArcSize=1;arcSize=14;strokeWidth=2;" vertex="1" parent="1">
          <mxGeometry x="520" y="495" width="130" height="50" as="geometry" />
        </mxCell>
        <mxCell id="ormA-Oc57IU-sr5O8KVN-15" value="Frete = Valor * 20%" style="rounded=1;whiteSpace=wrap;html=1;absoluteArcSize=1;arcSize=14;strokeWidth=2;" vertex="1" parent="1">
          <mxGeometry x="519" y="625" width="130" height="50" as="geometry" />
        </mxCell>
        <mxCell id="ormA-Oc57IU-sr5O8KVN-19" style="edgeStyle=orthogonalEdgeStyle;rounded=0;orthogonalLoop=1;jettySize=auto;html=1;exitX=0.5;exitY=1;exitDx=0;exitDy=0;entryX=0.5;entryY=0;entryDx=0;entryDy=0;entryPerimeter=0;" edge="1" parent="1" source="ormA-Oc57IU-sr5O8KVN-8" target="ormA-Oc57IU-sr5O8KVN-10">
          <mxGeometry relative="1" as="geometry" />
        </mxCell>
        <mxCell id="ormA-Oc57IU-sr5O8KVN-20" style="edgeStyle=orthogonalEdgeStyle;rounded=0;orthogonalLoop=1;jettySize=auto;html=1;exitX=0.5;exitY=1;exitDx=0;exitDy=0;exitPerimeter=0;entryX=0.5;entryY=0;entryDx=0;entryDy=0;entryPerimeter=0;" edge="1" parent="1" source="ormA-Oc57IU-sr5O8KVN-10" target="ormA-Oc57IU-sr5O8KVN-11">
          <mxGeometry relative="1" as="geometry" />
        </mxCell>
        <mxCell id="ormA-Oc57IU-sr5O8KVN-23" style="edgeStyle=orthogonalEdgeStyle;rounded=0;orthogonalLoop=1;jettySize=auto;html=1;exitX=0.5;exitY=1;exitDx=0;exitDy=0;exitPerimeter=0;entryX=0.5;entryY=0;entryDx=0;entryDy=0;entryPerimeter=0;" edge="1" parent="1" source="ormA-Oc57IU-sr5O8KVN-11" target="ormA-Oc57IU-sr5O8KVN-12">
          <mxGeometry relative="1" as="geometry" />
        </mxCell>
        <mxCell id="ormA-Oc57IU-sr5O8KVN-24" value="" style="strokeWidth=2;html=1;shape=mxgraph.flowchart.start_2;whiteSpace=wrap;" vertex="1" parent="1">
          <mxGeometry x="710" y="370" width="60" height="60" as="geometry" />
        </mxCell>
        <mxCell id="ormA-Oc57IU-sr5O8KVN-25" value="" style="strokeWidth=2;html=1;shape=mxgraph.flowchart.start_2;whiteSpace=wrap;" vertex="1" parent="1">
          <mxGeometry x="710" y="490" width="60" height="60" as="geometry" />
        </mxCell>
        <mxCell id="ormA-Oc57IU-sr5O8KVN-26" value="" style="strokeWidth=2;html=1;shape=mxgraph.flowchart.start_2;whiteSpace=wrap;" vertex="1" parent="1">
          <mxGeometry x="710" y="620" width="60" height="60" as="geometry" />
        </mxCell>
        <mxCell id="ormA-Oc57IU-sr5O8KVN-27" style="edgeStyle=orthogonalEdgeStyle;rounded=0;orthogonalLoop=1;jettySize=auto;html=1;exitX=1;exitY=0.5;exitDx=0;exitDy=0;entryX=0;entryY=0.5;entryDx=0;entryDy=0;entryPerimeter=0;" edge="1" parent="1" source="ormA-Oc57IU-sr5O8KVN-13" target="ormA-Oc57IU-sr5O8KVN-24">
          <mxGeometry relative="1" as="geometry" />
        </mxCell>
        <mxCell id="ormA-Oc57IU-sr5O8KVN-28" style="edgeStyle=orthogonalEdgeStyle;rounded=0;orthogonalLoop=1;jettySize=auto;html=1;exitX=1;exitY=0.5;exitDx=0;exitDy=0;entryX=0;entryY=0.5;entryDx=0;entryDy=0;entryPerimeter=0;" edge="1" parent="1" source="ormA-Oc57IU-sr5O8KVN-14" target="ormA-Oc57IU-sr5O8KVN-25">
          <mxGeometry relative="1" as="geometry" />
        </mxCell>
        <mxCell id="ormA-Oc57IU-sr5O8KVN-29" style="edgeStyle=orthogonalEdgeStyle;rounded=0;orthogonalLoop=1;jettySize=auto;html=1;exitX=1;exitY=0.5;exitDx=0;exitDy=0;entryX=0;entryY=0.5;entryDx=0;entryDy=0;entryPerimeter=0;" edge="1" parent="1" source="ormA-Oc57IU-sr5O8KVN-15" target="ormA-Oc57IU-sr5O8KVN-26">
          <mxGeometry relative="1" as="geometry" />
        </mxCell>
        <mxCell id="ormA-Oc57IU-sr5O8KVN-30" style="edgeStyle=orthogonalEdgeStyle;rounded=0;orthogonalLoop=1;jettySize=auto;html=1;exitX=0.5;exitY=1;exitDx=0;exitDy=0;exitPerimeter=0;entryX=0.5;entryY=0;entryDx=0;entryDy=0;entryPerimeter=0;" edge="1" parent="1" source="ormA-Oc57IU-sr5O8KVN-24" target="ormA-Oc57IU-sr5O8KVN-25">
          <mxGeometry relative="1" as="geometry" />
        </mxCell>
        <mxCell id="ormA-Oc57IU-sr5O8KVN-31" style="edgeStyle=orthogonalEdgeStyle;rounded=0;orthogonalLoop=1;jettySize=auto;html=1;exitX=0.5;exitY=1;exitDx=0;exitDy=0;exitPerimeter=0;entryX=0.5;entryY=0;entryDx=0;entryDy=0;entryPerimeter=0;" edge="1" parent="1" source="ormA-Oc57IU-sr5O8KVN-25" target="ormA-Oc57IU-sr5O8KVN-26">
          <mxGeometry relative="1" as="geometry" />
        </mxCell>
        <mxCell id="ormA-Oc57IU-sr5O8KVN-32" value="Produto&lt;br&gt;Valor&lt;br&gt;Estado&lt;br&gt;Frete" style="strokeWidth=2;html=1;shape=mxgraph.flowchart.display;whiteSpace=wrap;" vertex="1" parent="1">
          <mxGeometry x="190" y="920" width="116" height="90" as="geometry" />
        </mxCell>
        <mxCell id="ormA-Oc57IU-sr5O8KVN-33" value="" style="strokeWidth=2;html=1;shape=mxgraph.flowchart.start_2;whiteSpace=wrap;" vertex="1" parent="1">
          <mxGeometry x="385" y="720" width="60" height="60" as="geometry" />
        </mxCell>
        <mxCell id="ormA-Oc57IU-sr5O8KVN-34" style="edgeStyle=orthogonalEdgeStyle;rounded=0;orthogonalLoop=1;jettySize=auto;html=1;exitX=0.5;exitY=1;exitDx=0;exitDy=0;exitPerimeter=0;entryX=0.5;entryY=0;entryDx=0;entryDy=0;entryPerimeter=0;" edge="1" parent="1" source="ormA-Oc57IU-sr5O8KVN-12" target="ormA-Oc57IU-sr5O8KVN-33">
          <mxGeometry relative="1" as="geometry" />
        </mxCell>
        <mxCell id="ormA-Oc57IU-sr5O8KVN-35" style="edgeStyle=orthogonalEdgeStyle;rounded=0;orthogonalLoop=1;jettySize=auto;html=1;exitX=0.5;exitY=1;exitDx=0;exitDy=0;exitPerimeter=0;entryX=1;entryY=0.5;entryDx=0;entryDy=0;entryPerimeter=0;" edge="1" parent="1" source="ormA-Oc57IU-sr5O8KVN-26" target="ormA-Oc57IU-sr5O8KVN-33">
          <mxGeometry relative="1" as="geometry" />
        </mxCell>
        <mxCell id="ormA-Oc57IU-sr5O8KVN-36" value="Frete = 0" style="strokeWidth=2;html=1;shape=mxgraph.flowchart.decision;whiteSpace=wrap;" vertex="1" parent="1">
          <mxGeometry x="364" y="810" width="100" height="100" as="geometry" />
        </mxCell>
        <mxCell id="ormA-Oc57IU-sr5O8KVN-37" style="edgeStyle=orthogonalEdgeStyle;rounded=0;orthogonalLoop=1;jettySize=auto;html=1;exitX=0.5;exitY=1;exitDx=0;exitDy=0;exitPerimeter=0;entryX=0.5;entryY=0;entryDx=0;entryDy=0;entryPerimeter=0;" edge="1" parent="1" source="ormA-Oc57IU-sr5O8KVN-33" target="ormA-Oc57IU-sr5O8KVN-36">
          <mxGeometry relative="1" as="geometry" />
        </mxCell>
        <mxCell id="ormA-Oc57IU-sr5O8KVN-38" value="NÃ£o Ã© possÃ­vel Entregar" style="strokeWidth=2;html=1;shape=mxgraph.flowchart.display;whiteSpace=wrap;" vertex="1" parent="1">
          <mxGeometry x="500" y="935" width="100" height="60" as="geometry" />
        </mxCell>
        <mxCell id="ormA-Oc57IU-sr5O8KVN-41" style="edgeStyle=orthogonalEdgeStyle;rounded=0;orthogonalLoop=1;jettySize=auto;html=1;exitX=1;exitY=0.5;exitDx=0;exitDy=0;exitPerimeter=0;entryX=0.6;entryY=-0.083;entryDx=0;entryDy=0;entryPerimeter=0;" edge="1" parent="1" source="ormA-Oc57IU-sr5O8KVN-36" target="ormA-Oc57IU-sr5O8KVN-38">
          <mxGeometry relative="1" as="geometry" />
        </mxCell>
        <mxCell id="ormA-Oc57IU-sr5O8KVN-42" style="edgeStyle=orthogonalEdgeStyle;rounded=0;orthogonalLoop=1;jettySize=auto;html=1;exitX=0;exitY=0.5;exitDx=0;exitDy=0;exitPerimeter=0;entryX=0.425;entryY=-0.017;entryDx=0;entryDy=0;entryPerimeter=0;" edge="1" parent="1" source="ormA-Oc57IU-sr5O8KVN-36" target="ormA-Oc57IU-sr5O8KVN-32">
          <mxGeometry relative="1" as="geometry" />
        </mxCell>
        <mxCell id="ormA-Oc57IU-sr5O8KVN-43" value="Fim" style="strokeWidth=2;html=1;shape=mxgraph.flowchart.start_1;whiteSpace=wrap;" vertex="1" parent="1">
          <mxGeometry x="364" y="1090" width="100" height="60" as="geometry" />
        </mxCell>
        <mxCell id="ormA-Oc57IU-sr5O8KVN-44" value="" style="strokeWidth=2;html=1;shape=mxgraph.flowchart.start_2;whiteSpace=wrap;" vertex="1" parent="1">
          <mxGeometry x="384" y="1000" width="60" height="60" as="geometry" />
        </mxCell>
        <mxCell id="ormA-Oc57IU-sr5O8KVN-45" style="edgeStyle=orthogonalEdgeStyle;rounded=0;orthogonalLoop=1;jettySize=auto;html=1;exitX=0.5;exitY=1;exitDx=0;exitDy=0;exitPerimeter=0;entryX=0.039;entryY=0.661;entryDx=0;entryDy=0;entryPerimeter=0;" edge="1" parent="1" source="ormA-Oc57IU-sr5O8KVN-32" target="ormA-Oc57IU-sr5O8KVN-44">
          <mxGeometry relative="1" as="geometry" />
        </mxCell>
        <mxCell id="ormA-Oc57IU-sr5O8KVN-46" style="edgeStyle=orthogonalEdgeStyle;rounded=0;orthogonalLoop=1;jettySize=auto;html=1;exitX=0.5;exitY=1;exitDx=0;exitDy=0;exitPerimeter=0;entryX=1;entryY=0.5;entryDx=0;entryDy=0;entryPerimeter=0;" edge="1" parent="1" source="ormA-Oc57IU-sr5O8KVN-38" target="ormA-Oc57IU-sr5O8KVN-44">
          <mxGeometry relative="1" as="geometry" />
        </mxCell>
        <mxCell id="ormA-Oc57IU-sr5O8KVN-47" style="edgeStyle=orthogonalEdgeStyle;rounded=0;orthogonalLoop=1;jettySize=auto;html=1;exitX=0.5;exitY=1;exitDx=0;exitDy=0;exitPerimeter=0;entryX=0.5;entryY=0;entryDx=0;entryDy=0;entryPerimeter=0;" edge="1" parent="1" source="ormA-Oc57IU-sr5O8KVN-44" target="ormA-Oc57IU-sr5O8KVN-43">
          <mxGeometry relative="1" as="geometry" />
        </mxCell>
      </root>
    </mxGraphModel>
  </diagram>
</mxfile>
